%TF.GenerationSoftware,KiCad,Pcbnew,9.0.7*%
%TF.CreationDate,2026-01-31T17:00:11+00:00*%
%TF.ProjectId,timetable,74696d65-7461-4626-9c65-2e6b69636164,rev?*%
%TF.SameCoordinates,Original*%
%TF.FileFunction,Legend,Top*%
%TF.FilePolarity,Positive*%
%FSLAX46Y46*%
G04 Gerber Fmt 4.6, Leading zero omitted, Abs format (unit mm)*
G04 Created by KiCad (PCBNEW 9.0.7) date 2026-01-31 17:00:11*
%MOMM*%
%LPD*%
G01*
G04 APERTURE LIST*
%ADD10C,0.150000*%
%ADD11C,0.101600*%
%ADD12C,0.120000*%
%ADD13C,0.127000*%
%ADD14C,0.100000*%
%ADD15C,0.504000*%
G04 APERTURE END LIST*
D10*
X214166666Y-52304819D02*
X213833333Y-51828628D01*
X213595238Y-52304819D02*
X213595238Y-51304819D01*
X213595238Y-51304819D02*
X213976190Y-51304819D01*
X213976190Y-51304819D02*
X214071428Y-51352438D01*
X214071428Y-51352438D02*
X214119047Y-51400057D01*
X214119047Y-51400057D02*
X214166666Y-51495295D01*
X214166666Y-51495295D02*
X214166666Y-51638152D01*
X214166666Y-51638152D02*
X214119047Y-51733390D01*
X214119047Y-51733390D02*
X214071428Y-51781009D01*
X214071428Y-51781009D02*
X213976190Y-51828628D01*
X213976190Y-51828628D02*
X213595238Y-51828628D01*
X214595238Y-51781009D02*
X214928571Y-51781009D01*
X215071428Y-52304819D02*
X214595238Y-52304819D01*
X214595238Y-52304819D02*
X214595238Y-51304819D01*
X214595238Y-51304819D02*
X215071428Y-51304819D01*
X215833333Y-51781009D02*
X215500000Y-51781009D01*
X215500000Y-52304819D02*
X215500000Y-51304819D01*
X215500000Y-51304819D02*
X215976190Y-51304819D01*
X216500000Y-51304819D02*
X216500000Y-51542914D01*
X216261905Y-51447676D02*
X216500000Y-51542914D01*
X216500000Y-51542914D02*
X216738095Y-51447676D01*
X216357143Y-51733390D02*
X216500000Y-51542914D01*
X216500000Y-51542914D02*
X216642857Y-51733390D01*
X217261905Y-51304819D02*
X217261905Y-51542914D01*
X217023810Y-51447676D02*
X217261905Y-51542914D01*
X217261905Y-51542914D02*
X217500000Y-51447676D01*
X217119048Y-51733390D02*
X217261905Y-51542914D01*
X217261905Y-51542914D02*
X217404762Y-51733390D01*
X215707200Y-29333332D02*
X215754819Y-29190475D01*
X215754819Y-29190475D02*
X215754819Y-28952380D01*
X215754819Y-28952380D02*
X215707200Y-28857142D01*
X215707200Y-28857142D02*
X215659580Y-28809523D01*
X215659580Y-28809523D02*
X215564342Y-28761904D01*
X215564342Y-28761904D02*
X215469104Y-28761904D01*
X215469104Y-28761904D02*
X215373866Y-28809523D01*
X215373866Y-28809523D02*
X215326247Y-28857142D01*
X215326247Y-28857142D02*
X215278628Y-28952380D01*
X215278628Y-28952380D02*
X215231009Y-29142856D01*
X215231009Y-29142856D02*
X215183390Y-29238094D01*
X215183390Y-29238094D02*
X215135771Y-29285713D01*
X215135771Y-29285713D02*
X215040533Y-29333332D01*
X215040533Y-29333332D02*
X214945295Y-29333332D01*
X214945295Y-29333332D02*
X214850057Y-29285713D01*
X214850057Y-29285713D02*
X214802438Y-29238094D01*
X214802438Y-29238094D02*
X214754819Y-29142856D01*
X214754819Y-29142856D02*
X214754819Y-28904761D01*
X214754819Y-28904761D02*
X214802438Y-28761904D01*
X214754819Y-28428570D02*
X215754819Y-28190475D01*
X215754819Y-28190475D02*
X215040533Y-27999999D01*
X215040533Y-27999999D02*
X215754819Y-27809523D01*
X215754819Y-27809523D02*
X214754819Y-27571428D01*
X214754819Y-27285713D02*
X214754819Y-26666666D01*
X214754819Y-26666666D02*
X215135771Y-26999999D01*
X215135771Y-26999999D02*
X215135771Y-26857142D01*
X215135771Y-26857142D02*
X215183390Y-26761904D01*
X215183390Y-26761904D02*
X215231009Y-26714285D01*
X215231009Y-26714285D02*
X215326247Y-26666666D01*
X215326247Y-26666666D02*
X215564342Y-26666666D01*
X215564342Y-26666666D02*
X215659580Y-26714285D01*
X215659580Y-26714285D02*
X215707200Y-26761904D01*
X215707200Y-26761904D02*
X215754819Y-26857142D01*
X215754819Y-26857142D02*
X215754819Y-27142856D01*
X215754819Y-27142856D02*
X215707200Y-27238094D01*
X215707200Y-27238094D02*
X215659580Y-27285713D01*
D11*
X188273479Y-58603809D02*
X188787526Y-58603809D01*
X188787526Y-58603809D02*
X188848002Y-58573571D01*
X188848002Y-58573571D02*
X188878241Y-58543333D01*
X188878241Y-58543333D02*
X188908479Y-58482857D01*
X188908479Y-58482857D02*
X188908479Y-58361904D01*
X188908479Y-58361904D02*
X188878241Y-58301428D01*
X188878241Y-58301428D02*
X188848002Y-58271190D01*
X188848002Y-58271190D02*
X188787526Y-58240952D01*
X188787526Y-58240952D02*
X188273479Y-58240952D01*
X188908479Y-57605952D02*
X188908479Y-57968809D01*
X188908479Y-57787381D02*
X188273479Y-57787381D01*
X188273479Y-57787381D02*
X188364193Y-57847857D01*
X188364193Y-57847857D02*
X188424669Y-57908333D01*
X188424669Y-57908333D02*
X188454907Y-57968809D01*
D10*
X214156667Y-25867200D02*
X214299524Y-25914819D01*
X214299524Y-25914819D02*
X214537619Y-25914819D01*
X214537619Y-25914819D02*
X214632857Y-25867200D01*
X214632857Y-25867200D02*
X214680476Y-25819580D01*
X214680476Y-25819580D02*
X214728095Y-25724342D01*
X214728095Y-25724342D02*
X214728095Y-25629104D01*
X214728095Y-25629104D02*
X214680476Y-25533866D01*
X214680476Y-25533866D02*
X214632857Y-25486247D01*
X214632857Y-25486247D02*
X214537619Y-25438628D01*
X214537619Y-25438628D02*
X214347143Y-25391009D01*
X214347143Y-25391009D02*
X214251905Y-25343390D01*
X214251905Y-25343390D02*
X214204286Y-25295771D01*
X214204286Y-25295771D02*
X214156667Y-25200533D01*
X214156667Y-25200533D02*
X214156667Y-25105295D01*
X214156667Y-25105295D02*
X214204286Y-25010057D01*
X214204286Y-25010057D02*
X214251905Y-24962438D01*
X214251905Y-24962438D02*
X214347143Y-24914819D01*
X214347143Y-24914819D02*
X214585238Y-24914819D01*
X214585238Y-24914819D02*
X214728095Y-24962438D01*
X215061429Y-24914819D02*
X215299524Y-25914819D01*
X215299524Y-25914819D02*
X215490000Y-25200533D01*
X215490000Y-25200533D02*
X215680476Y-25914819D01*
X215680476Y-25914819D02*
X215918572Y-24914819D01*
X216251905Y-25010057D02*
X216299524Y-24962438D01*
X216299524Y-24962438D02*
X216394762Y-24914819D01*
X216394762Y-24914819D02*
X216632857Y-24914819D01*
X216632857Y-24914819D02*
X216728095Y-24962438D01*
X216728095Y-24962438D02*
X216775714Y-25010057D01*
X216775714Y-25010057D02*
X216823333Y-25105295D01*
X216823333Y-25105295D02*
X216823333Y-25200533D01*
X216823333Y-25200533D02*
X216775714Y-25343390D01*
X216775714Y-25343390D02*
X216204286Y-25914819D01*
X216204286Y-25914819D02*
X216823333Y-25914819D01*
X211166666Y-30304819D02*
X210833333Y-29828628D01*
X210595238Y-30304819D02*
X210595238Y-29304819D01*
X210595238Y-29304819D02*
X210976190Y-29304819D01*
X210976190Y-29304819D02*
X211071428Y-29352438D01*
X211071428Y-29352438D02*
X211119047Y-29400057D01*
X211119047Y-29400057D02*
X211166666Y-29495295D01*
X211166666Y-29495295D02*
X211166666Y-29638152D01*
X211166666Y-29638152D02*
X211119047Y-29733390D01*
X211119047Y-29733390D02*
X211071428Y-29781009D01*
X211071428Y-29781009D02*
X210976190Y-29828628D01*
X210976190Y-29828628D02*
X210595238Y-29828628D01*
X211595238Y-29781009D02*
X211928571Y-29781009D01*
X212071428Y-30304819D02*
X211595238Y-30304819D01*
X211595238Y-30304819D02*
X211595238Y-29304819D01*
X211595238Y-29304819D02*
X212071428Y-29304819D01*
X212833333Y-29781009D02*
X212500000Y-29781009D01*
X212500000Y-30304819D02*
X212500000Y-29304819D01*
X212500000Y-29304819D02*
X212976190Y-29304819D01*
X213500000Y-29304819D02*
X213500000Y-29542914D01*
X213261905Y-29447676D02*
X213500000Y-29542914D01*
X213500000Y-29542914D02*
X213738095Y-29447676D01*
X213357143Y-29733390D02*
X213500000Y-29542914D01*
X213500000Y-29542914D02*
X213642857Y-29733390D01*
X214261905Y-29304819D02*
X214261905Y-29542914D01*
X214023810Y-29447676D02*
X214261905Y-29542914D01*
X214261905Y-29542914D02*
X214500000Y-29447676D01*
X214119048Y-29733390D02*
X214261905Y-29542914D01*
X214261905Y-29542914D02*
X214404762Y-29733390D01*
X213002438Y-41761904D02*
X212954819Y-41857142D01*
X212954819Y-41857142D02*
X212954819Y-41999999D01*
X212954819Y-41999999D02*
X213002438Y-42142856D01*
X213002438Y-42142856D02*
X213097676Y-42238094D01*
X213097676Y-42238094D02*
X213192914Y-42285713D01*
X213192914Y-42285713D02*
X213383390Y-42333332D01*
X213383390Y-42333332D02*
X213526247Y-42333332D01*
X213526247Y-42333332D02*
X213716723Y-42285713D01*
X213716723Y-42285713D02*
X213811961Y-42238094D01*
X213811961Y-42238094D02*
X213907200Y-42142856D01*
X213907200Y-42142856D02*
X213954819Y-41999999D01*
X213954819Y-41999999D02*
X213954819Y-41904761D01*
X213954819Y-41904761D02*
X213907200Y-41761904D01*
X213907200Y-41761904D02*
X213859580Y-41714285D01*
X213859580Y-41714285D02*
X213526247Y-41714285D01*
X213526247Y-41714285D02*
X213526247Y-41904761D01*
X213954819Y-41285713D02*
X212954819Y-41285713D01*
X212954819Y-41285713D02*
X213954819Y-40714285D01*
X213954819Y-40714285D02*
X212954819Y-40714285D01*
X213954819Y-40238094D02*
X212954819Y-40238094D01*
X212954819Y-40238094D02*
X212954819Y-39999999D01*
X212954819Y-39999999D02*
X213002438Y-39857142D01*
X213002438Y-39857142D02*
X213097676Y-39761904D01*
X213097676Y-39761904D02*
X213192914Y-39714285D01*
X213192914Y-39714285D02*
X213383390Y-39666666D01*
X213383390Y-39666666D02*
X213526247Y-39666666D01*
X213526247Y-39666666D02*
X213716723Y-39714285D01*
X213716723Y-39714285D02*
X213811961Y-39761904D01*
X213811961Y-39761904D02*
X213907200Y-39857142D01*
X213907200Y-39857142D02*
X213954819Y-39999999D01*
X213954819Y-39999999D02*
X213954819Y-40238094D01*
X195157200Y-35483332D02*
X195204819Y-35340475D01*
X195204819Y-35340475D02*
X195204819Y-35102380D01*
X195204819Y-35102380D02*
X195157200Y-35007142D01*
X195157200Y-35007142D02*
X195109580Y-34959523D01*
X195109580Y-34959523D02*
X195014342Y-34911904D01*
X195014342Y-34911904D02*
X194919104Y-34911904D01*
X194919104Y-34911904D02*
X194823866Y-34959523D01*
X194823866Y-34959523D02*
X194776247Y-35007142D01*
X194776247Y-35007142D02*
X194728628Y-35102380D01*
X194728628Y-35102380D02*
X194681009Y-35292856D01*
X194681009Y-35292856D02*
X194633390Y-35388094D01*
X194633390Y-35388094D02*
X194585771Y-35435713D01*
X194585771Y-35435713D02*
X194490533Y-35483332D01*
X194490533Y-35483332D02*
X194395295Y-35483332D01*
X194395295Y-35483332D02*
X194300057Y-35435713D01*
X194300057Y-35435713D02*
X194252438Y-35388094D01*
X194252438Y-35388094D02*
X194204819Y-35292856D01*
X194204819Y-35292856D02*
X194204819Y-35054761D01*
X194204819Y-35054761D02*
X194252438Y-34911904D01*
X194204819Y-34578570D02*
X195204819Y-34340475D01*
X195204819Y-34340475D02*
X194490533Y-34149999D01*
X194490533Y-34149999D02*
X195204819Y-33959523D01*
X195204819Y-33959523D02*
X194204819Y-33721428D01*
X194538152Y-32911904D02*
X195204819Y-32911904D01*
X194157200Y-33149999D02*
X194871485Y-33388094D01*
X194871485Y-33388094D02*
X194871485Y-32769047D01*
X212954819Y-46095237D02*
X213954819Y-45761904D01*
X213954819Y-45761904D02*
X212954819Y-45428571D01*
X213954819Y-45095237D02*
X212954819Y-45095237D01*
X213954819Y-44619047D02*
X212954819Y-44619047D01*
X212954819Y-44619047D02*
X213954819Y-44047619D01*
X213954819Y-44047619D02*
X212954819Y-44047619D01*
X193166666Y-19804819D02*
X192833333Y-19328628D01*
X192595238Y-19804819D02*
X192595238Y-18804819D01*
X192595238Y-18804819D02*
X192976190Y-18804819D01*
X192976190Y-18804819D02*
X193071428Y-18852438D01*
X193071428Y-18852438D02*
X193119047Y-18900057D01*
X193119047Y-18900057D02*
X193166666Y-18995295D01*
X193166666Y-18995295D02*
X193166666Y-19138152D01*
X193166666Y-19138152D02*
X193119047Y-19233390D01*
X193119047Y-19233390D02*
X193071428Y-19281009D01*
X193071428Y-19281009D02*
X192976190Y-19328628D01*
X192976190Y-19328628D02*
X192595238Y-19328628D01*
X193595238Y-19281009D02*
X193928571Y-19281009D01*
X194071428Y-19804819D02*
X193595238Y-19804819D01*
X193595238Y-19804819D02*
X193595238Y-18804819D01*
X193595238Y-18804819D02*
X194071428Y-18804819D01*
X194833333Y-19281009D02*
X194500000Y-19281009D01*
X194500000Y-19804819D02*
X194500000Y-18804819D01*
X194500000Y-18804819D02*
X194976190Y-18804819D01*
X195500000Y-18804819D02*
X195500000Y-19042914D01*
X195261905Y-18947676D02*
X195500000Y-19042914D01*
X195500000Y-19042914D02*
X195738095Y-18947676D01*
X195357143Y-19233390D02*
X195500000Y-19042914D01*
X195500000Y-19042914D02*
X195642857Y-19233390D01*
X196261905Y-18804819D02*
X196261905Y-19042914D01*
X196023810Y-18947676D02*
X196261905Y-19042914D01*
X196261905Y-19042914D02*
X196500000Y-18947676D01*
X196119048Y-19233390D02*
X196261905Y-19042914D01*
X196261905Y-19042914D02*
X196404762Y-19233390D01*
X195107200Y-29333332D02*
X195154819Y-29190475D01*
X195154819Y-29190475D02*
X195154819Y-28952380D01*
X195154819Y-28952380D02*
X195107200Y-28857142D01*
X195107200Y-28857142D02*
X195059580Y-28809523D01*
X195059580Y-28809523D02*
X194964342Y-28761904D01*
X194964342Y-28761904D02*
X194869104Y-28761904D01*
X194869104Y-28761904D02*
X194773866Y-28809523D01*
X194773866Y-28809523D02*
X194726247Y-28857142D01*
X194726247Y-28857142D02*
X194678628Y-28952380D01*
X194678628Y-28952380D02*
X194631009Y-29142856D01*
X194631009Y-29142856D02*
X194583390Y-29238094D01*
X194583390Y-29238094D02*
X194535771Y-29285713D01*
X194535771Y-29285713D02*
X194440533Y-29333332D01*
X194440533Y-29333332D02*
X194345295Y-29333332D01*
X194345295Y-29333332D02*
X194250057Y-29285713D01*
X194250057Y-29285713D02*
X194202438Y-29238094D01*
X194202438Y-29238094D02*
X194154819Y-29142856D01*
X194154819Y-29142856D02*
X194154819Y-28904761D01*
X194154819Y-28904761D02*
X194202438Y-28761904D01*
X194154819Y-28428570D02*
X195154819Y-28190475D01*
X195154819Y-28190475D02*
X194440533Y-27999999D01*
X194440533Y-27999999D02*
X195154819Y-27809523D01*
X195154819Y-27809523D02*
X194154819Y-27571428D01*
X195154819Y-26666666D02*
X195154819Y-27238094D01*
X195154819Y-26952380D02*
X194154819Y-26952380D01*
X194154819Y-26952380D02*
X194297676Y-27047618D01*
X194297676Y-27047618D02*
X194392914Y-27142856D01*
X194392914Y-27142856D02*
X194440533Y-27238094D01*
X210414819Y-23603333D02*
X211129104Y-23603333D01*
X211129104Y-23603333D02*
X211271961Y-23650952D01*
X211271961Y-23650952D02*
X211367200Y-23746190D01*
X211367200Y-23746190D02*
X211414819Y-23889047D01*
X211414819Y-23889047D02*
X211414819Y-23984285D01*
X210510057Y-23174761D02*
X210462438Y-23127142D01*
X210462438Y-23127142D02*
X210414819Y-23031904D01*
X210414819Y-23031904D02*
X210414819Y-22793809D01*
X210414819Y-22793809D02*
X210462438Y-22698571D01*
X210462438Y-22698571D02*
X210510057Y-22650952D01*
X210510057Y-22650952D02*
X210605295Y-22603333D01*
X210605295Y-22603333D02*
X210700533Y-22603333D01*
X210700533Y-22603333D02*
X210843390Y-22650952D01*
X210843390Y-22650952D02*
X211414819Y-23222380D01*
X211414819Y-23222380D02*
X211414819Y-22603333D01*
D12*
%TO.C,SW3*%
X216500000Y-25600000D02*
X217500000Y-25600000D01*
X216500000Y-26200000D02*
X216500000Y-25600000D01*
X216500000Y-29800000D02*
X216500000Y-30400000D01*
X216500000Y-30400000D02*
X217500000Y-30400000D01*
X219300000Y-29000000D02*
X219300000Y-27000000D01*
D13*
%TO.C,U1*%
X188669000Y-53611272D02*
X188669000Y-45616000D01*
X189169000Y-45116000D02*
X190079000Y-45116000D01*
D14*
X190079000Y-42635000D02*
X190079000Y-56605000D01*
D13*
X190079000Y-42635000D02*
X190079000Y-56605000D01*
X190079000Y-54115000D02*
X189168728Y-54111272D01*
X209129000Y-40730000D02*
X191984000Y-40730000D01*
X209129000Y-58510000D02*
X191984000Y-58510000D01*
X211034000Y-56605000D02*
X211034000Y-42635000D01*
X188669000Y-45616000D02*
G75*
G02*
X189169000Y-45116000I500000J0D01*
G01*
X189168728Y-54111272D02*
G75*
G02*
X188669001Y-53611272I291J500018D01*
G01*
X190079000Y-42635000D02*
G75*
G02*
X191984000Y-40730000I1905000J0D01*
G01*
X191984000Y-58510000D02*
G75*
G02*
X190079000Y-56605000I1J1905001D01*
G01*
X209129000Y-40730000D02*
G75*
G02*
X211034000Y-42635000I0J-1905000D01*
G01*
X211034000Y-56605000D02*
G75*
G02*
X209129000Y-58510000I-1905001J1D01*
G01*
D15*
X190572000Y-58570000D02*
G75*
G02*
X190068000Y-58570000I-252000J0D01*
G01*
X190068000Y-58570000D02*
G75*
G02*
X190572000Y-58570000I252000J0D01*
G01*
X191452000Y-57427000D02*
G75*
G02*
X190948000Y-57427000I-252000J0D01*
G01*
X190948000Y-57427000D02*
G75*
G02*
X191452000Y-57427000I252000J0D01*
G01*
D12*
%TO.C,SW2*%
X212040000Y-22160000D02*
X212040000Y-21360000D01*
X214090000Y-23260000D02*
X213890000Y-23260000D01*
X217090000Y-23260000D02*
X215390000Y-23260000D01*
X218940000Y-22160000D02*
X218940000Y-21360000D01*
%TO.C,SW4*%
X190750000Y-33150000D02*
X190750000Y-35150000D01*
X193550000Y-31750000D02*
X192550000Y-31750000D01*
X193550000Y-32350000D02*
X193550000Y-31750000D01*
X193550000Y-35950000D02*
X193550000Y-36550000D01*
X193550000Y-36550000D02*
X192550000Y-36550000D01*
%TO.C,SW1*%
X190700000Y-27000000D02*
X190700000Y-29000000D01*
X193500000Y-25600000D02*
X192500000Y-25600000D01*
X193500000Y-26200000D02*
X193500000Y-25600000D01*
X193500000Y-29800000D02*
X193500000Y-30400000D01*
X193500000Y-30400000D02*
X192500000Y-30400000D01*
%TO.C,J2*%
X199580000Y-20620000D02*
X199580000Y-25920000D01*
X207310000Y-20620000D02*
X199580000Y-20620000D01*
X207310000Y-20620000D02*
X207310000Y-23270000D01*
X207310000Y-23270000D02*
X209960000Y-23270000D01*
X208580000Y-20620000D02*
X209960000Y-20620000D01*
X209960000Y-20620000D02*
X209960000Y-22000000D01*
X209960000Y-23270000D02*
X209960000Y-25920000D01*
X209960000Y-25920000D02*
X199580000Y-25920000D01*
%TD*%
M02*
