%TF.GenerationSoftware,KiCad,Pcbnew,9.0.7*%
%TF.CreationDate,2026-01-31T17:00:11+00:00*%
%TF.ProjectId,timetable,74696d65-7461-4626-9c65-2e6b69636164,rev?*%
%TF.SameCoordinates,Original*%
%TF.FileFunction,Soldermask,Bot*%
%TF.FilePolarity,Negative*%
%FSLAX46Y46*%
G04 Gerber Fmt 4.6, Leading zero omitted, Abs format (unit mm)*
G04 Created by KiCad (PCBNEW 9.0.7) date 2026-01-31 17:00:11*
%MOMM*%
%LPD*%
G01*
G04 APERTURE LIST*
G04 Aperture macros list*
%AMRoundRect*
0 Rectangle with rounded corners*
0 $1 Rounding radius*
0 $2 $3 $4 $5 $6 $7 $8 $9 X,Y pos of 4 corners*
0 Add a 4 corners polygon primitive as box body*
4,1,4,$2,$3,$4,$5,$6,$7,$8,$9,$2,$3,0*
0 Add four circle primitives for the rounded corners*
1,1,$1+$1,$2,$3*
1,1,$1+$1,$4,$5*
1,1,$1+$1,$6,$7*
1,1,$1+$1,$8,$9*
0 Add four rect primitives between the rounded corners*
20,1,$1+$1,$2,$3,$4,$5,0*
20,1,$1+$1,$4,$5,$6,$7,0*
20,1,$1+$1,$6,$7,$8,$9,0*
20,1,$1+$1,$8,$9,$2,$3,0*%
G04 Aperture macros list end*
%ADD10C,3.200000*%
%ADD11C,0.900000*%
%ADD12C,1.524000*%
%ADD13C,0.850000*%
%ADD14R,1.700000X1.700000*%
%ADD15C,1.700000*%
%ADD16R,1.500000X1.000000*%
%ADD17RoundRect,0.250000X0.250000X0.750000X-0.250000X0.750000X-0.250000X-0.750000X0.250000X-0.750000X0*%
%ADD18RoundRect,0.250000X0.750000X-0.250000X0.750000X0.250000X-0.750000X0.250000X-0.750000X-0.250000X0*%
G04 APERTURE END LIST*
D10*
%TO.C,REF\u002A\u002A*%
X215500000Y-56000000D03*
%TD*%
D11*
%TO.C,SW3*%
X218000000Y-30125000D03*
X218000000Y-25875000D03*
%TD*%
D12*
%TO.C,U1*%
X193000000Y-57240000D03*
X195540000Y-57240000D03*
X198080000Y-57240000D03*
X200620000Y-57240000D03*
X203160000Y-57240000D03*
X205700000Y-57240000D03*
X208240000Y-57240000D03*
X208240000Y-42000000D03*
X205700000Y-42000000D03*
X203160000Y-42000000D03*
X200620000Y-42000000D03*
X198080000Y-42000000D03*
X195540000Y-42000000D03*
X193000000Y-42000000D03*
%TD*%
D13*
%TO.C,SW2*%
X216990000Y-21760000D03*
X213990000Y-21760000D03*
%TD*%
D10*
%TO.C,REF\u002A\u002A*%
X212500000Y-34000000D03*
%TD*%
D11*
%TO.C,SW4*%
X192050000Y-32025000D03*
X192050000Y-36275000D03*
%TD*%
D10*
%TO.C,REF\u002A\u002A*%
X194500000Y-23500000D03*
%TD*%
D11*
%TO.C,SW1*%
X192000000Y-25875000D03*
X192000000Y-30125000D03*
%TD*%
D14*
%TO.C,J2*%
X208580000Y-22000000D03*
D15*
X208580000Y-24540000D03*
X206040000Y-22000000D03*
X206040000Y-24540000D03*
X203500000Y-22000000D03*
X203500000Y-24540000D03*
X200960000Y-22000000D03*
X200960000Y-24540000D03*
%TD*%
D16*
%TO.C,D1*%
X217950000Y-47900000D03*
X217950000Y-51100000D03*
X213050000Y-51100000D03*
X213050000Y-47900000D03*
%TD*%
D17*
%TO.C,B-*%
X200950000Y-28000000D03*
%TD*%
D18*
%TO.C,P+*%
X206040000Y-35550000D03*
%TD*%
%TO.C,P-*%
X206040000Y-33000000D03*
%TD*%
D17*
%TO.C,B+*%
X203500000Y-28000000D03*
%TD*%
M02*
