%TF.GenerationSoftware,KiCad,Pcbnew,9.0.7*%
%TF.CreationDate,2026-01-31T17:00:11+00:00*%
%TF.ProjectId,timetable,74696d65-7461-4626-9c65-2e6b69636164,rev?*%
%TF.SameCoordinates,Original*%
%TF.FileFunction,Copper,L1,Top*%
%TF.FilePolarity,Positive*%
%FSLAX46Y46*%
G04 Gerber Fmt 4.6, Leading zero omitted, Abs format (unit mm)*
G04 Created by KiCad (PCBNEW 9.0.7) date 2026-01-31 17:00:11*
%MOMM*%
%LPD*%
G01*
G04 APERTURE LIST*
G04 Aperture macros list*
%AMRoundRect*
0 Rectangle with rounded corners*
0 $1 Rounding radius*
0 $2 $3 $4 $5 $6 $7 $8 $9 X,Y pos of 4 corners*
0 Add a 4 corners polygon primitive as box body*
4,1,4,$2,$3,$4,$5,$6,$7,$8,$9,$2,$3,0*
0 Add four circle primitives for the rounded corners*
1,1,$1+$1,$2,$3*
1,1,$1+$1,$4,$5*
1,1,$1+$1,$6,$7*
1,1,$1+$1,$8,$9*
0 Add four rect primitives between the rounded corners*
20,1,$1+$1,$2,$3,$4,$5,0*
20,1,$1+$1,$4,$5,$6,$7,0*
20,1,$1+$1,$6,$7,$8,$9,0*
20,1,$1+$1,$8,$9,$2,$3,0*%
G04 Aperture macros list end*
%TA.AperFunction,SMDPad,CuDef*%
%ADD10RoundRect,0.187500X0.712500X-0.187500X0.712500X0.187500X-0.712500X0.187500X-0.712500X-0.187500X0*%
%TD*%
%TA.AperFunction,SMDPad,CuDef*%
%ADD11RoundRect,0.150000X0.750000X-0.150000X0.750000X0.150000X-0.750000X0.150000X-0.750000X-0.150000X0*%
%TD*%
%TA.AperFunction,SMDPad,CuDef*%
%ADD12RoundRect,0.225000X0.225000X-0.425000X0.225000X0.425000X-0.225000X0.425000X-0.225000X-0.425000X0*%
%TD*%
%TA.AperFunction,SMDPad,CuDef*%
%ADD13RoundRect,0.152400X-0.609600X1.063600X-0.609600X-1.063600X0.609600X-1.063600X0.609600X1.063600X0*%
%TD*%
%TA.AperFunction,ComponentPad*%
%ADD14C,1.524000*%
%TD*%
%TA.AperFunction,SMDPad,CuDef*%
%ADD15RoundRect,0.152400X0.609600X-1.063600X0.609600X1.063600X-0.609600X1.063600X-0.609600X-1.063600X0*%
%TD*%
%TA.AperFunction,SMDPad,CuDef*%
%ADD16RoundRect,0.150000X0.150000X0.500000X-0.150000X0.500000X-0.150000X-0.500000X0.150000X-0.500000X0*%
%TD*%
%TA.AperFunction,SMDPad,CuDef*%
%ADD17RoundRect,0.175000X0.350000X0.175000X-0.350000X0.175000X-0.350000X-0.175000X0.350000X-0.175000X0*%
%TD*%
%TA.AperFunction,SMDPad,CuDef*%
%ADD18RoundRect,0.250000X0.750000X-0.250000X0.750000X0.250000X-0.750000X0.250000X-0.750000X-0.250000X0*%
%TD*%
%TA.AperFunction,SMDPad,CuDef*%
%ADD19RoundRect,0.187500X-0.712500X0.187500X-0.712500X-0.187500X0.712500X-0.187500X0.712500X0.187500X0*%
%TD*%
%TA.AperFunction,SMDPad,CuDef*%
%ADD20RoundRect,0.150000X-0.750000X0.150000X-0.750000X-0.150000X0.750000X-0.150000X0.750000X0.150000X0*%
%TD*%
%TA.AperFunction,SMDPad,CuDef*%
%ADD21RoundRect,0.225000X-0.225000X0.425000X-0.225000X-0.425000X0.225000X-0.425000X0.225000X0.425000X0*%
%TD*%
%TA.AperFunction,ComponentPad*%
%ADD22R,1.700000X1.700000*%
%TD*%
%TA.AperFunction,ComponentPad*%
%ADD23C,1.700000*%
%TD*%
%TA.AperFunction,ViaPad*%
%ADD24C,0.600000*%
%TD*%
%TA.AperFunction,Conductor*%
%ADD25C,0.200000*%
%TD*%
G04 APERTURE END LIST*
D10*
%TO.P,SW3,1,1*%
%TO.N,GND*%
X217100000Y-29225000D03*
X217100000Y-26775000D03*
D11*
%TO.P,SW3,2,2*%
%TO.N,b2*%
X217100000Y-28000000D03*
D12*
%TO.P,SW3,MP*%
%TO.N,N/C*%
X219050000Y-29850000D03*
X219050000Y-26150000D03*
%TD*%
D13*
%TO.P,U1,1,GPIO26/ADC0/A0*%
%TO.N,cs*%
X193000000Y-58075000D03*
D14*
X193000000Y-57240000D03*
D13*
%TO.P,U1,2,GPIO27/ADC1/A1*%
%TO.N,sda{slash}din*%
X195540000Y-58075000D03*
D14*
X195540000Y-57240000D03*
D13*
%TO.P,U1,3,GPIO28/ADC2/A2*%
%TO.N,b1*%
X198080000Y-58075000D03*
D14*
X198080000Y-57240000D03*
D13*
%TO.P,U1,4,GPIO29/ADC3/A3*%
%TO.N,b2*%
X200620000Y-58075000D03*
D14*
X200620000Y-57240000D03*
D13*
%TO.P,U1,5,GPIO6/SDA*%
%TO.N,Net-(D1-DIN)*%
X203160000Y-58075000D03*
D14*
X203160000Y-57240000D03*
D13*
%TO.P,U1,6,GPIO7/SCL*%
%TO.N,unconnected-(U1-GPIO7{slash}SCL-Pad6)*%
X205700000Y-58075000D03*
D14*
X205700000Y-57240000D03*
D13*
%TO.P,U1,7,GPIO0/TX*%
%TO.N,b3*%
X208240000Y-58075000D03*
D14*
X208240000Y-57240000D03*
%TO.P,U1,8,GPIO1/RX*%
%TO.N,res*%
X208240000Y-42000000D03*
D15*
X208240000Y-41165000D03*
D14*
%TO.P,U1,9,GPIO2/SCK*%
%TO.N,scl{slash}clk*%
X205700000Y-42000000D03*
D15*
X205700000Y-41165000D03*
D14*
%TO.P,U1,10,GPIO4/MISO*%
%TO.N,d{slash}c*%
X203160000Y-42000000D03*
D15*
X203160000Y-41165000D03*
D14*
%TO.P,U1,11,GPIO3/MOSI*%
%TO.N,busy*%
X200620000Y-42000000D03*
D15*
X200620000Y-41165000D03*
D14*
%TO.P,U1,12,3V3*%
%TO.N,+3.3V*%
X198080000Y-42000000D03*
D15*
X198080000Y-41165000D03*
D14*
%TO.P,U1,13,GND*%
%TO.N,GND*%
X195540000Y-42000000D03*
D15*
X195540000Y-41165000D03*
D14*
%TO.P,U1,14,VBUS*%
%TO.N,unconnected-(U1-VBUS-Pad14)*%
X193000000Y-42000000D03*
D15*
X193000000Y-41165000D03*
%TD*%
D16*
%TO.P,SW2,1,A*%
%TO.N,Net-(B+1-Pin_1)*%
X217740000Y-23710000D03*
%TO.P,SW2,2,B*%
%TO.N,Net-(SW2-B)*%
X214740000Y-23710000D03*
%TO.P,SW2,3,C*%
%TO.N,unconnected-(SW2-C-Pad3)*%
X213240000Y-23710000D03*
D17*
%TO.P,SW2,SH*%
%TO.N,N/C*%
X219165000Y-22860000D03*
X219165000Y-20660000D03*
X211815000Y-22860000D03*
X211815000Y-20660000D03*
%TD*%
D18*
%TO.P,GND,1,Pin_1*%
%TO.N,GND*%
X215500000Y-41500000D03*
%TD*%
D19*
%TO.P,SW4,1,1*%
%TO.N,GND*%
X192950000Y-32925000D03*
X192950000Y-35375000D03*
D20*
%TO.P,SW4,2,2*%
%TO.N,b3*%
X192950000Y-34150000D03*
D21*
%TO.P,SW4,MP*%
%TO.N,N/C*%
X191000000Y-32300000D03*
X191000000Y-36000000D03*
%TD*%
D18*
%TO.P,VIN,1,Pin_1*%
%TO.N,Net-(SW2-B)*%
X215500000Y-44050000D03*
%TD*%
D19*
%TO.P,SW1,1,1*%
%TO.N,GND*%
X192900000Y-26775000D03*
X192900000Y-29225000D03*
D20*
%TO.P,SW1,2,2*%
%TO.N,b1*%
X192900000Y-28000000D03*
D21*
%TO.P,SW1,MP*%
%TO.N,N/C*%
X190950000Y-26150000D03*
X190950000Y-29850000D03*
%TD*%
D22*
%TO.P,J2,1,Pin_1*%
%TO.N,busy*%
X208580000Y-22000000D03*
D23*
%TO.P,J2,2,Pin_2*%
%TO.N,res*%
X208580000Y-24540000D03*
%TO.P,J2,3,Pin_3*%
%TO.N,d{slash}c*%
X206040000Y-22000000D03*
%TO.P,J2,4,Pin_4*%
%TO.N,cs*%
X206040000Y-24540000D03*
%TO.P,J2,5,Pin_5*%
%TO.N,scl{slash}clk*%
X203500000Y-22000000D03*
%TO.P,J2,6,Pin_6*%
%TO.N,sda{slash}din*%
X203500000Y-24540000D03*
%TO.P,J2,7,Pin_7*%
%TO.N,+3.3V*%
X200960000Y-22000000D03*
%TO.P,J2,8,Pin_8*%
%TO.N,GND*%
X200960000Y-24540000D03*
%TD*%
D24*
%TO.N,cs*%
X200000000Y-47000000D03*
X202500000Y-45500000D03*
X205500000Y-31000000D03*
%TO.N,sda{slash}din*%
X197732765Y-45884235D03*
%TO.N,res*%
X206640000Y-30000000D03*
%TO.N,d{slash}c*%
X206640000Y-29000000D03*
%TO.N,busy*%
X211000000Y-25500000D03*
%TO.N,b1*%
X194500000Y-28625000D03*
%TO.N,b2*%
X215000000Y-28000000D03*
%TO.N,GND*%
X217500000Y-41500000D03*
X201500000Y-33500000D03*
X204289000Y-34500000D03*
X204100000Y-30500000D03*
X199000000Y-33000000D03*
X199500000Y-28500000D03*
X206040000Y-33000000D03*
%TO.N,Net-(B+1-Pin_1)*%
X206000000Y-37500000D03*
X215500000Y-25000000D03*
X207500000Y-38500000D03*
%TD*%
D25*
%TO.N,scl{slash}clk*%
X204889000Y-23389000D02*
X204889000Y-41189000D01*
X203500000Y-22000000D02*
X204889000Y-23389000D01*
X204889000Y-41189000D02*
X205700000Y-42000000D01*
%TO.N,+3.3V*%
X200960000Y-22000000D02*
X202111000Y-23151000D01*
X202111000Y-23151000D02*
X202111000Y-36891370D01*
X198080000Y-40922370D02*
X198080000Y-42000000D01*
X202111000Y-36891370D02*
X198080000Y-40922370D01*
%TO.N,cs*%
X206040000Y-24540000D02*
X206040000Y-30460000D01*
X206040000Y-30460000D02*
X205500000Y-31000000D01*
X201500000Y-47000000D02*
X200000000Y-47000000D01*
X202500000Y-46000000D02*
X201500000Y-47000000D01*
X202500000Y-45500000D02*
X202500000Y-46000000D01*
%TO.N,sda{slash}din*%
X198239075Y-45884235D02*
X197732765Y-45884235D01*
X203500000Y-38506374D02*
X201683000Y-40323374D01*
X201683000Y-40323374D02*
X201683000Y-42440310D01*
X203500000Y-24540000D02*
X203500000Y-38506374D01*
X201683000Y-42440310D02*
X198239075Y-45884235D01*
%TO.N,res*%
X206723602Y-30000000D02*
X206640000Y-30000000D01*
X208580000Y-24540000D02*
X208580000Y-28143602D01*
X208580000Y-28143602D02*
X206723602Y-30000000D01*
%TO.N,d{slash}c*%
X207191000Y-28449000D02*
X206640000Y-29000000D01*
X206040000Y-22000000D02*
X207191000Y-23151000D01*
X207191000Y-23151000D02*
X207191000Y-28449000D01*
%TO.N,busy*%
X211000000Y-24420000D02*
X211000000Y-25500000D01*
X208580000Y-22000000D02*
X211000000Y-24420000D01*
%TO.N,b1*%
X192900000Y-28000000D02*
X193875000Y-28000000D01*
X193875000Y-28000000D02*
X194500000Y-28625000D01*
%TO.N,b2*%
X215000000Y-28000000D02*
X217100000Y-28000000D01*
%TO.N,b3*%
X196603000Y-36903001D02*
X193849999Y-34150000D01*
X193849999Y-34150000D02*
X192950000Y-34150000D01*
X196603000Y-45603000D02*
X196603000Y-36903001D01*
X208240000Y-57240000D02*
X196603000Y-45603000D01*
%TO.N,GND*%
X192900000Y-32875000D02*
X192950000Y-32925000D01*
X215500000Y-41500000D02*
X217100000Y-39900000D01*
X204100000Y-30500000D02*
X204289000Y-30689000D01*
X217100000Y-29225000D02*
X209815000Y-29225000D01*
X199500000Y-33500000D02*
X201500000Y-33500000D01*
X217416968Y-29225000D02*
X217100000Y-29225000D01*
X218000000Y-26775000D02*
X218301000Y-27076000D01*
X191749000Y-34490968D02*
X192633032Y-35375000D01*
X217500000Y-41500000D02*
X215500000Y-41500000D01*
X191500000Y-27275000D02*
X191500000Y-28500000D01*
X191500000Y-28500000D02*
X192225000Y-29225000D01*
X217100000Y-39900000D02*
X217100000Y-29225000D01*
X198775000Y-29225000D02*
X199500000Y-28500000D01*
X192950000Y-35375000D02*
X195540000Y-37965000D01*
X192900000Y-26775000D02*
X192000000Y-26775000D01*
X192225000Y-29225000D02*
X192900000Y-29225000D01*
X192900000Y-29225000D02*
X192900000Y-32875000D01*
X218301000Y-28340968D02*
X217416968Y-29225000D01*
X204289000Y-30689000D02*
X204289000Y-34500000D01*
X195540000Y-37965000D02*
X195540000Y-42000000D01*
X217100000Y-26775000D02*
X218000000Y-26775000D01*
X191749000Y-33226000D02*
X191749000Y-34490968D01*
X192900000Y-29225000D02*
X198775000Y-29225000D01*
X209815000Y-29225000D02*
X206040000Y-33000000D01*
X218301000Y-27076000D02*
X218301000Y-28340968D01*
X200960000Y-24540000D02*
X198725000Y-26775000D01*
X192050000Y-32925000D02*
X191749000Y-33226000D01*
X198725000Y-26775000D02*
X192900000Y-26775000D01*
X192633032Y-35375000D02*
X192950000Y-35375000D01*
X192000000Y-26775000D02*
X191500000Y-27275000D01*
X199000000Y-33000000D02*
X199500000Y-33500000D01*
X192950000Y-32925000D02*
X192050000Y-32925000D01*
%TO.N,Net-(B+1-Pin_1)*%
X216450000Y-25000000D02*
X215500000Y-25000000D01*
X217740000Y-23710000D02*
X216450000Y-25000000D01*
X207500000Y-38000000D02*
X207000000Y-37500000D01*
X207000000Y-37500000D02*
X206000000Y-37500000D01*
X207500000Y-38500000D02*
X207500000Y-38000000D01*
%TO.N,Net-(SW2-B)*%
X205439000Y-32261000D02*
X205439000Y-33989000D01*
X205439000Y-33989000D02*
X215500000Y-44050000D01*
X205439000Y-32261000D02*
X206189000Y-32261000D01*
X206189000Y-32261000D02*
X214740000Y-23710000D01*
%TD*%
M02*
