M48
; DRILL file {KiCad 9.0.7} date 2026-01-31T17:00:08+0000
; FORMAT={-:-/ absolute / metric / decimal}
; #@! TF.CreationDate,2026-01-31T17:00:08+00:00
; #@! TF.GenerationSoftware,Kicad,Pcbnew,9.0.7
; #@! TF.FileFunction,Plated,1,2,PTH
FMAT,2
METRIC
; #@! TA.AperFunction,Plated,PTH,ViaDrill
T1C0.300
; #@! TA.AperFunction,Plated,PTH,ComponentDrill
T2C0.889
; #@! TA.AperFunction,Plated,PTH,ComponentDrill
T3C1.000
%
G90
G05
T1
X194.5Y-28.625
X197.733Y-45.884
X199.0Y-33.0
X199.5Y-28.5
X200.0Y-47.0
X201.5Y-33.5
X202.5Y-45.5
X204.1Y-30.5
X204.289Y-34.5
X205.5Y-31.0
X206.0Y-37.5
X206.04Y-33.0
X206.64Y-29.0
X206.64Y-30.0
X207.5Y-38.5
X211.0Y-25.5
X215.0Y-28.0
X215.5Y-25.0
X217.5Y-41.5
T2
X193.0Y-42.0
X193.0Y-57.24
X195.54Y-42.0
X195.54Y-57.24
X198.08Y-42.0
X198.08Y-57.24
X200.62Y-42.0
X200.62Y-57.24
X203.16Y-42.0
X203.16Y-57.24
X205.7Y-42.0
X205.7Y-57.24
X208.24Y-42.0
X208.24Y-57.24
T3
X200.96Y-22.0
X200.96Y-24.54
X203.5Y-22.0
X203.5Y-24.54
X206.04Y-22.0
X206.04Y-24.54
X208.58Y-22.0
X208.58Y-24.54
M30
