%TF.GenerationSoftware,KiCad,Pcbnew,9.0.7*%
%TF.CreationDate,2026-01-31T17:00:11+00:00*%
%TF.ProjectId,timetable,74696d65-7461-4626-9c65-2e6b69636164,rev?*%
%TF.SameCoordinates,Original*%
%TF.FileFunction,Soldermask,Top*%
%TF.FilePolarity,Negative*%
%FSLAX46Y46*%
G04 Gerber Fmt 4.6, Leading zero omitted, Abs format (unit mm)*
G04 Created by KiCad (PCBNEW 9.0.7) date 2026-01-31 17:00:11*
%MOMM*%
%LPD*%
G01*
G04 APERTURE LIST*
G04 Aperture macros list*
%AMRoundRect*
0 Rectangle with rounded corners*
0 $1 Rounding radius*
0 $2 $3 $4 $5 $6 $7 $8 $9 X,Y pos of 4 corners*
0 Add a 4 corners polygon primitive as box body*
4,1,4,$2,$3,$4,$5,$6,$7,$8,$9,$2,$3,0*
0 Add four circle primitives for the rounded corners*
1,1,$1+$1,$2,$3*
1,1,$1+$1,$4,$5*
1,1,$1+$1,$6,$7*
1,1,$1+$1,$8,$9*
0 Add four rect primitives between the rounded corners*
20,1,$1+$1,$2,$3,$4,$5,0*
20,1,$1+$1,$4,$5,$6,$7,0*
20,1,$1+$1,$6,$7,$8,$9,0*
20,1,$1+$1,$8,$9,$2,$3,0*%
G04 Aperture macros list end*
%ADD10C,3.200000*%
%ADD11C,0.900000*%
%ADD12RoundRect,0.187500X0.712500X-0.187500X0.712500X0.187500X-0.712500X0.187500X-0.712500X-0.187500X0*%
%ADD13RoundRect,0.150000X0.750000X-0.150000X0.750000X0.150000X-0.750000X0.150000X-0.750000X-0.150000X0*%
%ADD14RoundRect,0.225000X0.225000X-0.425000X0.225000X0.425000X-0.225000X0.425000X-0.225000X-0.425000X0*%
%ADD15RoundRect,0.152400X-0.609600X1.063600X-0.609600X-1.063600X0.609600X-1.063600X0.609600X1.063600X0*%
%ADD16C,1.524000*%
%ADD17RoundRect,0.152400X0.609600X-1.063600X0.609600X1.063600X-0.609600X1.063600X-0.609600X-1.063600X0*%
%ADD18C,0.850000*%
%ADD19RoundRect,0.150000X0.150000X0.500000X-0.150000X0.500000X-0.150000X-0.500000X0.150000X-0.500000X0*%
%ADD20RoundRect,0.175000X0.350000X0.175000X-0.350000X0.175000X-0.350000X-0.175000X0.350000X-0.175000X0*%
%ADD21RoundRect,0.250000X0.750000X-0.250000X0.750000X0.250000X-0.750000X0.250000X-0.750000X-0.250000X0*%
%ADD22RoundRect,0.187500X-0.712500X0.187500X-0.712500X-0.187500X0.712500X-0.187500X0.712500X0.187500X0*%
%ADD23RoundRect,0.150000X-0.750000X0.150000X-0.750000X-0.150000X0.750000X-0.150000X0.750000X0.150000X0*%
%ADD24RoundRect,0.225000X-0.225000X0.425000X-0.225000X-0.425000X0.225000X-0.425000X0.225000X0.425000X0*%
%ADD25R,1.700000X1.700000*%
%ADD26C,1.700000*%
G04 APERTURE END LIST*
D10*
%TO.C,REF\u002A\u002A*%
X215500000Y-56000000D03*
%TD*%
D11*
%TO.C,SW3*%
X218000000Y-30125000D03*
X218000000Y-25875000D03*
D12*
X217100000Y-29225000D03*
X217100000Y-26775000D03*
D13*
X217100000Y-28000000D03*
D14*
X219050000Y-29850000D03*
X219050000Y-26150000D03*
%TD*%
D15*
%TO.C,U1*%
X193000000Y-58075000D03*
D16*
X193000000Y-57240000D03*
D15*
X195540000Y-58075000D03*
D16*
X195540000Y-57240000D03*
D15*
X198080000Y-58075000D03*
D16*
X198080000Y-57240000D03*
D15*
X200620000Y-58075000D03*
D16*
X200620000Y-57240000D03*
D15*
X203160000Y-58075000D03*
D16*
X203160000Y-57240000D03*
D15*
X205700000Y-58075000D03*
D16*
X205700000Y-57240000D03*
D15*
X208240000Y-58075000D03*
D16*
X208240000Y-57240000D03*
X208240000Y-42000000D03*
D17*
X208240000Y-41165000D03*
D16*
X205700000Y-42000000D03*
D17*
X205700000Y-41165000D03*
D16*
X203160000Y-42000000D03*
D17*
X203160000Y-41165000D03*
D16*
X200620000Y-42000000D03*
D17*
X200620000Y-41165000D03*
D16*
X198080000Y-42000000D03*
D17*
X198080000Y-41165000D03*
D16*
X195540000Y-42000000D03*
D17*
X195540000Y-41165000D03*
D16*
X193000000Y-42000000D03*
D17*
X193000000Y-41165000D03*
%TD*%
D18*
%TO.C,SW2*%
X216990000Y-21760000D03*
X213990000Y-21760000D03*
D19*
X217740000Y-23710000D03*
X214740000Y-23710000D03*
X213240000Y-23710000D03*
D20*
X219165000Y-22860000D03*
X219165000Y-20660000D03*
X211815000Y-22860000D03*
X211815000Y-20660000D03*
%TD*%
D10*
%TO.C,REF\u002A\u002A*%
X212500000Y-34000000D03*
%TD*%
D21*
%TO.C,GND*%
X215500000Y-41500000D03*
%TD*%
D11*
%TO.C,SW4*%
X192050000Y-32025000D03*
X192050000Y-36275000D03*
D22*
X192950000Y-32925000D03*
X192950000Y-35375000D03*
D23*
X192950000Y-34150000D03*
D24*
X191000000Y-32300000D03*
X191000000Y-36000000D03*
%TD*%
D21*
%TO.C,VIN*%
X215500000Y-44050000D03*
%TD*%
D10*
%TO.C,REF\u002A\u002A*%
X194500000Y-23500000D03*
%TD*%
D11*
%TO.C,SW1*%
X192000000Y-25875000D03*
X192000000Y-30125000D03*
D22*
X192900000Y-26775000D03*
X192900000Y-29225000D03*
D23*
X192900000Y-28000000D03*
D24*
X190950000Y-26150000D03*
X190950000Y-29850000D03*
%TD*%
D25*
%TO.C,J2*%
X208580000Y-22000000D03*
D26*
X208580000Y-24540000D03*
X206040000Y-22000000D03*
X206040000Y-24540000D03*
X203500000Y-22000000D03*
X203500000Y-24540000D03*
X200960000Y-22000000D03*
X200960000Y-24540000D03*
%TD*%
M02*
